# xmcd
#
# Track frame offsets:
#	183
#	54208
#	79708
#	194058
#	248408
#	283783
#	298508
#
# Disc length: 4290
#
# Revision: 1
# Processed by: cddbd v1.5.1PL0 Copyright (c) Steve Scherf et al.
# Submitted via: CDex 1.51
# Normalized: r0:TRMNUM
#
DISCID=5e10c007
DTITLE=V 65 Ornette Coleman - Ornette
DYEAR=1991
DGENRE=Jazz
TTITLE0=Klactoveesedstene
TTITLE1=Free
TTITLE2=Ornette Suite
TTITLE3=Clergyman's Dream
TTITLE4=Falling Stars
TTITLE5=Sadness
TTITLE6=Ballad
EXTD=YEAR: 1991
EXTT0=
EXTT1=
EXTT2=
EXTT3=
EXTT4=
EXTT5=
EXTT6=
PLAYORDER=
